<svg xmlns="http://www.w3.org/2000/svg" viewBox="0 0 100 100">
  <defs>
    <linearGradient id="g" x1="0%" y1="0%" x2="100%" y2="100%">
      <stop offset="0%" stop-color="#06b6d4"/>
      <stop offset="100%" stop-color="#3b82f6"/>
    </linearGradient>
  </defs>
  <path d="M50 8L12 24v22c0 24 16 42 38 46 22-4 38-22 38-46V24L50 8z" fill="url(#g)"/>
  <path d="M50 14L18 28v18c0 20 13 36 32 40 19-4 32-20 32-40V28L50 14z" fill="url(#g)"/>
  <rect x="38" y="40" width="24" height="18" rx="3" fill="none" stroke="#fff" stroke-width="2.5"/>
  <path d="M58 40v-6a8 8 0 0 0-16 0v6" fill="none" stroke="#fff" stroke-width="2.5" stroke-linecap="round"/>
  <circle cx="50" cy="50" r="3.5" fill="#fff"/>
  <rect x="48" y="50" width="4" height="7" rx="1" fill="#fff"/>
  <path d="M26 50h-4q-4 0-4 4v20q0 4 4 4h16q4 0 4-4V54q0-4-4-4h-4" fill="none" stroke="#fff" stroke-width="2" stroke-linecap="round"/>
  <circle cx="29" cy="80" r="2" fill="#4ade80"/>
</svg>